<svg xmlns="http://www.w3.org/2000/svg" width="138.338" height="138.338" viewBox="0 0 138.338 138.338">
  <path id="Path_133" data-name="Path 133" d="M534.978,1593.3v138.338H673.316V1593.3Zm30.505,29.993h17.472c7.281,0,17.347,6.853,17.347,19.058a17.929,17.929,0,0,1-18.31,18.418h-6.451v-7.495h6.451c5.674,0,10.386-5.568,10.386-10.976,0-7.442-5.3-11.511-11.565-11.511h-7.407v29.981h-7.924Zm18,78.994h-7.9c-6.018,0-10.1-3.008-10.1-11.283V1664.68h7.951v25.254c0,3.44,1.4,4.408,4.084,4.408h5.965Zm30.563,0h-8.383v-13.54H597.5v-7.308h8.167v-5.051c0-2.793-1.29-5.05-5.157-5.05s-5.1,2.256-5.1,5.05v25.9h-8.383v-24.5c0-6.556,3.708-13.755,13.487-13.755s13.54,7.2,13.54,13.755Zm18.5,0h-5.48v-7.522h4.244c2.257,0,3.546-1.772,3.546-4.191,0-3.223-1.88-4.352-4.084-4.352h-3.707v-6.556h1.987c2.687,0,4.406-1.289,4.406-3.921a3.865,3.865,0,0,0-3.976-4.191c-2.58,0-4.406,1.5-4.406,5.158v25.576h-7.522v-24.823c0-9.511,5.05-13.433,12.52-13.433,6.34,0,11.338,4.513,11.338,10.96a8.35,8.35,0,0,1-3.761,7.2c3.546,1.771,5.158,5.21,5.158,9.079C642.811,1697.51,638.835,1702.292,632.549,1702.292Zm10.262-58.651c0,7.388-6.424,17.775-19.005,17.775-11.189,0-19.113-8.834-19.113-19.381s7.923-19.379,19.113-19.379a21.707,21.707,0,0,1,15.365,5.835l-5.033,5.781a13.46,13.46,0,0,0-9.69-4.121,11.674,11.674,0,0,0,0,23.342c4.658,0,9.263-3.695,10.011-7.977H624.074v-6.96h18.737Z" transform="translate(-534.978 -1593.305)" fill="#1c1c1c"/>
</svg>
