<svg xmlns="http://www.w3.org/2000/svg" width="203.355" height="143.355" viewBox="0 0 143.355 143.355">
  <g id="Group_76" data-name="Group 76" transform="translate(-415.265 -762.819)">
    <path id="Path_58" data-name="Path 58" d="M549.163,830.085H531.439q.214,2.177.215,4.413a44.621,44.621,0,0,1-18.9,36.513L510.5,862.6a36.589,36.589,0,0,0,13.112-28.1,36.629,36.629,0,0,0-32.018-36.378q-.672-.085-1.354-.146-1.629-.145-3.3-.146-1.714,0-3.389.153-.634.06-1.263.138-.905.115-1.795.273a36.636,36.636,0,0,0-22.1,13.087h-9.793a44.712,44.712,0,0,1,33.686-21.455,45.327,45.327,0,0,1,9.3,0,44.752,44.752,0,0,1,37.917,30.758h27.8a71.712,71.712,0,0,0-65.716-57.814q-2.306-.149-4.65-.15t-4.652.15A71.687,71.687,0,0,0,415.4,830.085q-.132,2.188-.134,4.413,0,2.466.165,4.891a71.779,71.779,0,0,0,31.1,54.314l2.576-9.615,2.36-8.809,2.761-10.306a44.576,44.576,0,0,1-11.732-25.584h8.1a36.585,36.585,0,0,0,12.713,23.147l-2.256,8.419-2.549,9.517-2.236,8.349-2.476,9.242a71.207,71.207,0,0,0,28.5,7.962q2.306.149,4.652.149t4.65-.149a71.635,71.635,0,0,0,66.863-66.637q.163-2.426.164-4.891,0-2.223-.134-4.413Zm-31.627,58.781a61.995,61.995,0,0,1-25.943,7.834q-2.3.171-4.65.171t-4.652-.171a61.992,61.992,0,0,1-17.469-3.866l2.166-8.088,2.438-9.1,2.108-7.867,2.5-9.329a27.295,27.295,0,0,1-10.76-10.529,26.965,26.965,0,0,1-3.1-8.534,27.5,27.5,0,0,1-.083-9.3H433.068q-.175,2.182-.177,4.413,0,2.473.218,4.891a53.789,53.789,0,0,0,10.865,27.906l-2.619,9.775a62.141,62.141,0,0,1-16.6-37.681q-.188-2.421-.189-4.891,0-2.225.154-4.413a62.385,62.385,0,0,1,57.57-57.792q2.3-.171,4.652-.171t4.65.171a62.415,62.415,0,0,1,53.338,39.189H535.86a54.08,54.08,0,0,0-44.266-30.841q-2.3-.194-4.65-.2t-4.652.2a54.093,54.093,0,0,0-47.646,40.141h28.8a27.3,27.3,0,0,1,14.238-11.875,27.137,27.137,0,0,1,8.373-1.6c.3-.01.592-.014.891-.014.266,0,.532,0,.8.012A27.212,27.212,0,0,1,499.77,858.5l2.5,9.323,2.107,7.864,2.437,9.1a54.111,54.111,0,0,0,33.965-45.393h8.353A62.382,62.382,0,0,1,517.537,888.866Z" transform="translate(0 0)" fill="#fff" fill-rule="evenodd"/>
  </g>
</svg>
